# xmcd CD database file
#
# Track frame offsets:
#	150
#	15485
#	28894
#	47356
#	63183
#	75724
#	90275
#	107689
#	129552
#	150061
#	165333
#	184731
#
# Disc length: 2665 seconds
#
# Revision: 0
# Processed by: cddbd v1.5.1PL2 Copyright (c) Steve Scherf et al.
# Submitted via: CDex 1.50Beta7
#
DISCID=790a670c
DTITLE=Vania Abreu - Seio da Bahia
DYEAR=1900
DGENRE=Jazz
TTITLE0=Mais de Mim
TTITLE1=Seio da Bahia
TTITLE2=Olhozinho
TTITLE3=Dono dos teus olhos
TTITLE4=A manga rosa
TTITLE5=O Perdão
TTITLE6=Anjo da Velha Guarda
TTITLE7=Conto De Areia
TTITLE8=Na volta que o mundo dá
TTITLE9=Voz guia
TTITLE10=Nena, Jacira e Dodô
TTITLE11=Sangue Latino
EXTD=
EXTT0=
EXTT1=
EXTT2=
EXTT3=
EXTT4=
EXTT5=
EXTT6=
EXTT7=
EXTT8=
EXTT9=
EXTT10=
EXTT11=
PLAYORDER=
